<svg xmlns="http://www.w3.org/2000/svg" xmlns:xlink="http://www.w3.org/1999/xlink" width="40" zoomAndPan="magnify" viewBox="0 0 30 30.000001" height="40" preserveAspectRatio="xMidYMid meet" version="1.0"><defs><clipPath id="id1"><path d="M 3.386719 3.714844 L 26.613281 3.714844 L 26.613281 25.492188 L 3.386719 25.492188 Z M 3.386719 3.714844 " clip-rule="nonzero"/></clipPath></defs><g clip-path="url(#id1)"><path fill="#000000" d="M 18.871094 3.714844 L 11.128906 3.714844 C 6.863281 3.714844 3.390625 7.21875 3.390625 11.527344 L 3.390625 13.589844 C 3.390625 16.988281 5.546875 19.9375 8.660156 20.992188 C 8.265625 21.675781 7.730469 22.742188 6.960938 24.410156 C 6.828125 24.695312 6.886719 25.039062 7.109375 25.265625 C 7.253906 25.410156 7.449219 25.488281 7.644531 25.488281 C 7.75 25.488281 7.859375 25.46875 7.960938 25.421875 L 16.671875 21.402344 L 18.871094 21.402344 C 23.136719 21.402344 26.609375 17.898438 26.609375 13.589844 L 26.609375 11.527344 C 26.609375 7.21875 23.136719 3.714844 18.871094 3.714844 Z M 25.101562 13.589844 C 25.101562 17.058594 22.304688 19.878906 18.871094 19.878906 L 16.507812 19.878906 C 16.398438 19.878906 16.292969 19.902344 16.195312 19.949219 L 9.238281 23.15625 C 9.703125 22.230469 10.125 21.445312 10.320312 21.183594 C 10.511719 21.070312 10.648438 20.871094 10.679688 20.632812 C 10.730469 20.226562 10.457031 19.855469 10.0625 19.785156 C 7.070312 19.257812 4.898438 16.652344 4.898438 13.589844 L 4.898438 11.527344 C 4.898438 8.058594 7.695312 5.238281 11.128906 5.238281 L 18.871094 5.238281 C 22.304688 5.238281 25.101562 8.058594 25.101562 11.527344 Z M 25.101562 13.589844 " fill-opacity="1" fill-rule="nonzero"/></g><path fill="#000000" d="M 10.820312 12.734375 C 10.820312 12.957031 10.777344 13.171875 10.691406 13.375 C 10.609375 13.582031 10.488281 13.765625 10.332031 13.921875 C 10.175781 14.078125 9.996094 14.203125 9.789062 14.285156 C 9.585938 14.371094 9.375 14.414062 9.152344 14.414062 C 8.929688 14.414062 8.71875 14.371094 8.515625 14.285156 C 8.308594 14.203125 8.128906 14.078125 7.972656 13.921875 C 7.816406 13.765625 7.695312 13.582031 7.609375 13.375 C 7.527344 13.171875 7.484375 12.957031 7.484375 12.734375 C 7.484375 12.507812 7.527344 12.292969 7.609375 12.089844 C 7.695312 11.882812 7.816406 11.699219 7.972656 11.542969 C 8.128906 11.386719 8.308594 11.265625 8.515625 11.179688 C 8.71875 11.09375 8.929688 11.050781 9.152344 11.050781 C 9.375 11.050781 9.585938 11.09375 9.789062 11.179688 C 9.996094 11.265625 10.175781 11.386719 10.332031 11.542969 C 10.488281 11.699219 10.609375 11.882812 10.691406 12.089844 C 10.777344 12.292969 10.820312 12.507812 10.820312 12.734375 Z M 10.820312 12.734375 " fill-opacity="1" fill-rule="nonzero"/><path fill="#000000" d="M 22.515625 12.734375 C 22.515625 12.957031 22.472656 13.171875 22.390625 13.375 C 22.304688 13.582031 22.183594 13.765625 22.027344 13.921875 C 21.871094 14.078125 21.691406 14.203125 21.484375 14.285156 C 21.28125 14.371094 21.070312 14.414062 20.847656 14.414062 C 20.625 14.414062 20.414062 14.371094 20.210938 14.285156 C 20.003906 14.203125 19.824219 14.078125 19.667969 13.921875 C 19.511719 13.765625 19.390625 13.582031 19.308594 13.375 C 19.222656 13.171875 19.179688 12.957031 19.179688 12.734375 C 19.179688 12.507812 19.222656 12.292969 19.308594 12.089844 C 19.390625 11.882812 19.511719 11.699219 19.667969 11.542969 C 19.824219 11.386719 20.003906 11.265625 20.210938 11.179688 C 20.414062 11.09375 20.625 11.050781 20.847656 11.050781 C 21.070312 11.050781 21.28125 11.09375 21.484375 11.179688 C 21.691406 11.265625 21.871094 11.386719 22.027344 11.542969 C 22.183594 11.699219 22.304688 11.882812 22.390625 12.089844 C 22.472656 12.292969 22.515625 12.507812 22.515625 12.734375 Z M 22.515625 12.734375 " fill-opacity="1" fill-rule="nonzero"/><path fill="#000000" d="M 16.667969 12.734375 C 16.667969 12.957031 16.625 13.171875 16.542969 13.375 C 16.457031 13.582031 16.335938 13.765625 16.179688 13.921875 C 16.023438 14.078125 15.84375 14.203125 15.636719 14.285156 C 15.433594 14.371094 15.222656 14.414062 15 14.414062 C 14.777344 14.414062 14.566406 14.371094 14.363281 14.285156 C 14.15625 14.203125 13.976562 14.078125 13.820312 13.921875 C 13.664062 13.765625 13.542969 13.582031 13.457031 13.375 C 13.375 13.171875 13.332031 12.957031 13.332031 12.734375 C 13.332031 12.507812 13.375 12.292969 13.457031 12.089844 C 13.542969 11.882812 13.664062 11.699219 13.820312 11.542969 C 13.976562 11.386719 14.15625 11.265625 14.363281 11.179688 C 14.566406 11.09375 14.777344 11.050781 15 11.050781 C 15.222656 11.050781 15.433594 11.09375 15.636719 11.179688 C 15.84375 11.265625 16.023438 11.386719 16.179688 11.542969 C 16.335938 11.699219 16.457031 11.882812 16.542969 12.089844 C 16.625 12.292969 16.667969 12.507812 16.667969 12.734375 Z M 16.667969 12.734375 " fill-opacity="1" fill-rule="nonzero"/></svg>