<svg xmlns="http://www.w3.org/2000/svg" xmlns:xlink="http://www.w3.org/1999/xlink" width="40" zoomAndPan="magnify" viewBox="0 0 30 30.000001" height="40" preserveAspectRatio="xMidYMid meet" version="1.0"><defs><clipPath id="id1"><path d="M 3.386719 2.902344 L 25.160156 2.902344 L 25.160156 27.582031 L 3.386719 27.582031 Z M 3.386719 2.902344 " clip-rule="nonzero"/></clipPath></defs><path fill="#100f0d" d="M 6.769531 20.242188 C 6.859375 20.5625 6.988281 21 7.152344 21.5625 C 7.316406 22.121094 7.429688 22.488281 7.484375 22.660156 C 7.539062 22.832031 7.585938 22.980469 7.628906 23.101562 C 7.671875 23.21875 7.707031 23.304688 7.742188 23.367188 C 7.792969 23.492188 7.878906 23.589844 8 23.644531 C 8.105469 23.695312 8.222656 23.722656 8.34375 23.722656 C 8.476562 23.722656 8.601562 23.691406 8.71875 23.632812 C 8.839844 23.570312 8.925781 23.480469 8.972656 23.367188 C 8.976562 23.359375 8.980469 23.351562 8.984375 23.34375 C 9.003906 23.292969 9.042969 23.191406 9.09375 23.039062 C 9.140625 22.890625 9.230469 22.597656 9.359375 22.152344 C 9.488281 21.710938 9.632812 21.207031 9.789062 20.640625 C 9.941406 20.070312 10.058594 19.644531 10.132812 19.355469 C 10.203125 19.058594 10.074219 18.929688 9.992188 18.878906 C 9.882812 18.8125 9.769531 18.792969 9.660156 18.8125 C 9.523438 18.839844 9.417969 18.945312 9.34375 19.144531 L 8.34375 22.636719 L 7.3125 19.105469 C 7.242188 18.945312 7.183594 18.859375 7.105469 18.816406 C 7.042969 18.78125 6.972656 18.765625 6.878906 18.757812 C 6.742188 18.753906 6.625 18.8125 6.546875 18.933594 C 6.503906 19 6.4375 19.140625 6.511719 19.328125 L 6.769531 20.242188 " fill-opacity="1" fill-rule="nonzero"/><path fill="#100f0d" d="M 11.441406 20.59375 C 11.515625 20.367188 11.617188 20.179688 11.742188 20.035156 C 11.867188 19.886719 12.015625 19.777344 12.1875 19.703125 C 12.371094 19.625 12.566406 19.589844 12.785156 19.589844 C 13.234375 19.589844 13.597656 19.734375 13.894531 20.035156 C 14.199219 20.335938 14.367188 20.800781 14.390625 21.398438 C 14.382812 21.691406 14.328125 21.9375 14.230469 22.128906 C 14.132812 22.316406 14.011719 22.464844 13.867188 22.574219 C 13.714844 22.6875 13.546875 22.765625 13.355469 22.808594 C 13.019531 22.894531 12.703125 22.925781 12.289062 22.808594 C 12.125 22.757812 11.96875 22.679688 11.828125 22.566406 C 11.6875 22.453125 11.566406 22.304688 11.472656 22.117188 C 11.378906 21.933594 11.332031 21.695312 11.332031 21.410156 C 11.332031 21.097656 11.367188 20.824219 11.441406 20.59375 Z M 11.261719 23.125 C 11.476562 23.308594 11.714844 23.445312 11.976562 23.53125 C 12.230469 23.617188 12.488281 23.660156 12.746094 23.660156 C 13.035156 23.660156 13.324219 23.621094 13.601562 23.539062 C 13.886719 23.453125 14.144531 23.316406 14.363281 23.136719 C 14.589844 22.953125 14.777344 22.71875 14.917969 22.433594 C 15.0625 22.152344 15.140625 21.804688 15.15625 21.414062 C 15.15625 21.410156 15.15625 21.40625 15.15625 21.402344 C 15.164062 21.015625 15.109375 20.65625 14.984375 20.332031 C 14.863281 20.011719 14.691406 19.734375 14.476562 19.507812 C 14.257812 19.28125 14 19.105469 13.703125 18.984375 C 13.117188 18.742188 12.386719 18.742188 11.839844 18.988281 C 11.566406 19.117188 11.328125 19.296875 11.140625 19.527344 C 10.949219 19.757812 10.800781 20.035156 10.695312 20.355469 C 10.597656 20.667969 10.542969 21.023438 10.542969 21.410156 C 10.542969 21.796875 10.613281 22.136719 10.742188 22.421875 C 10.875 22.703125 11.046875 22.941406 11.261719 23.125 " fill-opacity="1" fill-rule="nonzero"/><path fill="#100f0d" d="M 15.859375 19.65625 C 16.199219 19.636719 16.453125 19.625 16.621094 19.617188 C 16.621094 19.625 16.621094 19.628906 16.621094 19.636719 C 16.617188 19.722656 16.613281 19.839844 16.605469 19.980469 C 16.597656 20.191406 16.589844 20.421875 16.578125 20.675781 C 16.570312 20.925781 16.554688 21.175781 16.535156 21.4375 C 16.527344 21.652344 16.515625 21.949219 16.5 22.324219 C 16.488281 22.699219 16.476562 22.945312 16.476562 23.0625 L 16.472656 23.292969 C 16.472656 23.425781 16.53125 23.53125 16.636719 23.601562 C 16.714844 23.648438 16.800781 23.671875 16.898438 23.671875 C 16.988281 23.671875 17.070312 23.648438 17.152344 23.601562 C 17.257812 23.535156 17.320312 23.425781 17.320312 23.292969 C 17.320312 23.242188 17.320312 23.128906 17.324219 22.957031 L 17.339844 22.332031 C 17.34375 22.089844 17.351562 21.828125 17.363281 21.546875 C 17.371094 21.261719 17.382812 20.988281 17.398438 20.714844 C 17.40625 20.449219 17.421875 20.199219 17.441406 19.972656 C 17.453125 19.832031 17.460938 19.710938 17.472656 19.605469 C 17.621094 19.609375 17.777344 19.617188 17.941406 19.628906 C 18.113281 19.648438 18.238281 19.652344 18.3125 19.648438 C 18.4375 19.644531 18.535156 19.605469 18.59375 19.53125 C 18.652344 19.46875 18.683594 19.382812 18.691406 19.273438 C 18.699219 19.148438 18.648438 19.035156 18.554688 18.953125 C 18.472656 18.882812 18.359375 18.84375 18.210938 18.839844 L 17.742188 18.824219 C 17.527344 18.816406 17.300781 18.8125 17.0625 18.8125 C 16.824219 18.8125 16.460938 18.832031 15.953125 18.871094 C 15.667969 18.894531 15.503906 18.933594 15.445312 19.082031 C 15.421875 19.144531 15.410156 19.210938 15.40625 19.277344 C 15.402344 19.371094 15.429688 19.457031 15.484375 19.527344 C 15.574219 19.648438 15.734375 19.660156 15.859375 19.65625 " fill-opacity="1" fill-rule="nonzero"/><path fill="#100f0d" d="M 18.914062 23.503906 C 18.972656 23.535156 19.046875 23.558594 19.136719 23.574219 C 19.207031 23.585938 19.292969 23.59375 19.390625 23.597656 C 19.5 23.601562 19.625 23.617188 19.734375 23.597656 C 19.785156 23.601562 19.835938 23.601562 19.890625 23.597656 C 19.925781 23.597656 19.960938 23.597656 20.003906 23.601562 L 20.675781 23.636719 C 20.730469 23.640625 20.792969 23.640625 20.863281 23.640625 C 21.164062 23.640625 21.402344 23.625 21.585938 23.597656 C 21.921875 23.542969 22.015625 23.378906 22.035156 23.25 C 22.035156 23.230469 22.035156 23.210938 22.035156 23.191406 C 22.019531 23.09375 21.945312 22.871094 21.5625 22.882812 L 20.996094 22.898438 C 20.960938 22.898438 20.925781 22.902344 20.886719 22.902344 C 20.859375 22.90625 20.835938 22.90625 20.8125 22.90625 C 20.726562 22.902344 20.65625 22.90625 20.597656 22.902344 C 20.539062 22.902344 20.472656 22.898438 20.398438 22.890625 C 20.320312 22.886719 20.21875 22.878906 20.097656 22.863281 L 19.765625 22.832031 C 19.769531 22.773438 19.769531 22.710938 19.773438 22.648438 C 19.785156 22.507812 19.792969 22.363281 19.8125 22.164062 L 19.839844 21.757812 C 19.847656 21.675781 19.851562 21.597656 19.855469 21.527344 C 19.933594 21.523438 20.015625 21.523438 20.136719 21.527344 C 20.214844 21.53125 20.296875 21.535156 20.382812 21.535156 L 20.636719 21.546875 C 20.777344 21.550781 20.902344 21.554688 21.0625 21.546875 L 21.191406 21.542969 C 21.203125 21.542969 21.210938 21.546875 21.222656 21.546875 C 21.4375 21.546875 21.574219 21.394531 21.574219 21.132812 C 21.550781 20.972656 21.445312 20.855469 21.28125 20.820312 C 21.1875 20.800781 21.054688 20.789062 20.878906 20.789062 L 20.539062 20.789062 C 20.4375 20.789062 20.347656 20.789062 20.277344 20.785156 C 20.199219 20.785156 20.132812 20.785156 20.078125 20.785156 L 19.863281 20.785156 L 19.867188 19.96875 C 19.867188 19.890625 19.867188 19.816406 19.867188 19.742188 C 19.867188 19.699219 19.867188 19.65625 19.867188 19.613281 C 19.917969 19.613281 19.964844 19.609375 20.011719 19.609375 C 20.230469 19.605469 20.527344 19.605469 20.789062 19.613281 C 20.921875 19.617188 21.046875 19.621094 21.164062 19.625 L 21.707031 19.65625 C 21.800781 19.648438 21.886719 19.613281 21.953125 19.550781 C 22.007812 19.503906 22.066406 19.414062 22.066406 19.265625 C 22.066406 19.140625 21.996094 19.03125 21.875 18.96875 C 21.804688 18.933594 21.710938 18.910156 21.589844 18.890625 C 21.484375 18.875 21.359375 18.867188 21.207031 18.863281 L 20.75 18.863281 L 19.402344 18.882812 C 19.257812 18.894531 19.164062 18.917969 19.097656 18.964844 C 19.007812 19.027344 18.957031 19.125 18.957031 19.246094 C 18.957031 19.382812 19.011719 19.492188 19.113281 19.550781 L 19.125 20.019531 C 19.125 20.238281 19.125 20.40625 19.121094 20.523438 L 19.117188 20.796875 C 19.050781 20.808594 18.984375 20.832031 18.933594 20.878906 C 18.886719 20.925781 18.832031 21.007812 18.832031 21.144531 C 18.832031 21.21875 18.855469 21.425781 19.09375 21.503906 C 19.082031 21.761719 19.070312 22.007812 19.058594 22.242188 C 19.046875 22.457031 19.027344 22.671875 19.003906 22.882812 C 18.84375 22.925781 18.746094 23.054688 18.746094 23.234375 C 18.746094 23.351562 18.808594 23.449219 18.914062 23.503906 " fill-opacity="1" fill-rule="nonzero"/><g clip-path="url(#id1)"><path fill="#100f0d" d="M 24.128906 26.535156 L 4.417969 26.535156 L 4.417969 15.035156 L 24.128906 15.035156 Z M 8.894531 8.765625 L 11.078125 8.765625 L 9.566406 10.519531 C 9.433594 10.671875 9.402344 10.890625 9.484375 11.078125 C 9.566406 11.265625 9.75 11.382812 9.949219 11.382812 L 18.273438 11.382812 C 18.421875 11.382812 18.5625 11.320312 18.660156 11.203125 L 20.164062 9.441406 L 23.601562 13.996094 L 4.945312 13.996094 Z M 16.421875 4.164062 L 20.324219 7.671875 L 18.039062 10.339844 L 11.085938 10.339844 Z M 25.148438 14.484375 C 25.148438 14.464844 25.140625 14.445312 25.140625 14.425781 C 25.125 14.355469 25.101562 14.292969 25.0625 14.234375 C 25.058594 14.222656 25.058594 14.207031 25.050781 14.199219 L 20.851562 8.640625 L 21.429688 7.964844 C 21.613281 7.75 21.59375 7.421875 21.382812 7.230469 L 16.714844 3.035156 C 16.613281 2.945312 16.476562 2.902344 16.34375 2.90625 C 16.207031 2.914062 16.078125 2.980469 15.988281 3.082031 L 11.980469 7.722656 L 8.640625 7.722656 C 8.480469 7.722656 8.332031 7.796875 8.234375 7.925781 L 3.5 14.199219 C 3.488281 14.207031 3.492188 14.222656 3.484375 14.234375 C 3.445312 14.292969 3.421875 14.355469 3.410156 14.425781 C 3.40625 14.445312 3.398438 14.464844 3.398438 14.484375 C 3.398438 14.496094 3.390625 14.503906 3.390625 14.515625 L 3.390625 27.054688 C 3.390625 27.34375 3.621094 27.578125 3.90625 27.578125 L 24.644531 27.578125 C 24.925781 27.578125 25.15625 27.34375 25.15625 27.054688 L 25.15625 14.515625 C 25.15625 14.503906 25.152344 14.496094 25.148438 14.484375 " fill-opacity="1" fill-rule="nonzero"/></g></svg>